Coordinates
version=1
nRows=16
nColumns=22
inDegrees=yes

Units are S.I. units (second, meters, Newtons, ...)
If the header above contains a line with 'inDegrees', this indicates whether rotational values are in degrees (yes) or radians (no).

endheader
time	pelvis_tilt	pelvis_list	pelvis_rotation	pelvis_tx	pelvis_ty	pelvis_tz	hip_flexion_r	hip_adduction_r	hip_rotation_r	knee_angle_r	ankle_angle_r	subtalar_angle_r	hip_flexion_l	hip_adduction_l	hip_rotation_l	knee_angle_l	ankle_angle_l	subtalar_angle_l	lumbar_extension	lumbar_bending	lumbar_rotation
      2.77000000	     11.03689725	     -4.91779582	    -27.05382602	      1.41434846	      0.89224985	      0.89282961	      8.41218337	     -3.99523017	     -3.76917861	    -35.55671141	     16.54950720	    -13.42367141	      6.07800528	      3.87536069	      3.33458075	    -35.82241832	     15.84116400	     -8.62950758	    -12.59559545	     -0.99958744	      3.44703479
      2.78000000	     10.95993944	     -4.88070899	    -26.48140112	      1.42109102	      0.89499947	      0.89706190	      7.16945951	     -4.03220771	     -4.68581195	    -34.43939146	     16.48455955	    -13.02917766	      5.16582588	      3.66715450	      3.54274997	    -34.95702389	     15.51080020	     -8.30002238	    -12.06728335	     -1.00354635	      3.50341521
      2.79000000	     10.83386270	     -4.81627927	    -25.90180783	      1.42759773	      0.89739672	      0.90110536	      6.03332636	     -4.06415681	     -5.67266783	    -33.34164102	     16.39676890	    -12.73274901	      4.40160733	      3.47362012	      3.79284482	    -34.20143258	     15.28701062	     -8.04710087	    -11.53742951	     -1.01641159	      3.55032021
      2.80000000	     10.68592346	     -4.74109283	    -25.37253775	      1.43380862	      0.89949169	      0.90506645	      4.99518539	     -4.07092287	     -6.62562692	    -32.29692333	     16.32284728	    -12.36595718	      3.72035853	      3.26963745	      3.97108068	    -33.50280132	     15.07215648	     -7.77694700	    -11.04562113	     -1.04803289	      3.63439888
      2.81000000	     10.51438853	     -4.64396167	    -24.88548426	      1.43972205	      0.90125718	      0.90889710	      4.07675891	     -4.07111527	     -7.53751398	    -31.33860976	     16.25751327	    -11.94909518	      3.11005373	      3.07037247	      4.07651687	    -32.82466044	     14.91964513	     -7.49920281	    -10.59277013	     -1.10046182	      3.73958401
      2.82000000	     10.32009970	     -4.52274011	    -24.45531367	      1.44530384	      0.90269161	      0.91262897	      3.27886059	     -4.06856149	     -8.38567830	    -30.46726258	     16.21212596	    -11.48187674	      2.56842018	      2.87418973	      4.07519263	    -32.16711728	     14.81765499	     -7.21792171	    -10.17997734	     -1.18431857	      3.88020818
      2.83000000	     10.09243010	     -4.38564420	    -24.06730141	      1.45055283	      0.90379942	      0.91623646	      2.59439539	     -4.04817025	     -9.16240769	    -29.66361511	     16.19832951	    -11.10212325	      2.09277895	      2.67716214	      3.99935007	    -31.51579124	     14.77887069	     -6.98969392	     -9.80043041	     -1.28091785	      4.02540005
      2.84000000	      9.86647619	     -4.23186451	    -23.77151762	      1.45545824	      0.90464376	      0.91981525	      2.00572105	     -4.03455806	     -9.83702662	    -28.95408810	     16.20147678	    -10.56636922	      1.61586064	      2.48225809	      3.75272541	    -30.81962878	     14.77639074	     -6.69811029	     -9.48306721	     -1.41567442	      4.20718246
      2.85000000	      9.61257891	     -4.09173376	    -23.50422197	      1.46004331	      0.90523686	      0.92327103	      1.47745750	     -3.97022221	    -10.42633258	    -28.25674439	     16.24586504	    -10.28806393	      1.16359055	      2.27552583	      3.50511839	    -30.09782890	     14.86856288	     -6.52246160	     -9.21117126	     -1.53145009	      4.37843792
      2.86000000	      9.35299037	     -3.94863667	    -23.30320949	      1.46431163	      0.90560812	      0.92669018	      1.00904752	     -3.88753536	    -10.90732306	    -27.59499877	     16.31712278	    -10.00097972	      0.71885513	      2.06839394	      3.16284405	    -29.35273680	     14.98842835	     -6.34433794	     -8.98679671	     -1.66221254	      4.55739665
      2.87000000	      9.04612364	     -3.80957690	    -23.14953308	      1.46824252	      0.90570493	      0.93005120	      0.64201480	     -3.76037770	    -11.28808677	    -26.97539106	     16.47606186	     -9.85513508	      0.34314779	      1.84289859	      2.78171185	    -28.62117488	     15.20409803	     -6.24220404	     -8.76980254	     -1.77851003	      4.70893341
      2.88000000	      8.75962378	     -3.69404457	    -23.01879217	      1.47190578	      0.90570295	      0.93334042	      0.25942203	     -3.59670860	    -11.59416707	    -26.33500629	     16.59843370	     -9.72758230	     -0.05633554	      1.62003930	      2.43666880	    -27.87734227	     15.39419075	     -6.14202996	     -8.62675262	     -1.88639542	      4.84606058
      2.89000000	      8.47236829	     -3.58312652	    -22.90281812	      1.47529531	      0.90555974	      0.93655226	     -0.09427711	     -3.41281937	    -11.84808562	    -25.70557088	     16.71249277	     -9.64970293	     -0.42203438	      1.40674027	      2.13577280	    -27.16641860	     15.58400162	     -6.05224762	     -8.52362180	     -1.99652446	      4.93773536
      2.90000000	      8.16337266	     -3.49385318	    -22.79972975	      1.47841409	      0.90525113	      0.93967721	     -0.38619896	     -3.19117914	    -12.07412195	    -25.12488698	     16.89492228	     -9.65956514	     -0.72253980	      1.17797964	      1.89738800	    -26.51954820	     15.82067136	     -5.99571778	     -8.44096120	     -2.07711655	      5.00663210
      2.91000000	      7.84925223	     -3.41749646	    -22.69779603	      1.48128954	      0.90482792	      0.94270106	     -0.64050252	     -2.94777826	    -12.27612215	    -24.57654118	     17.10331619	     -9.73937939	     -0.95837963	      0.94725354	      1.73113104	    -25.95841301	     16.08743880	     -5.95905705	     -8.38600552	     -2.14338628	      5.03230561
      2.92000000	      7.53947158	     -3.35822286	    -22.59552722	      1.48393736	      0.90433618	      0.94561186	     -0.86615761	     -2.68867195	    -12.47594822	    -24.06520672	     17.32218776	     -9.87018427	     -1.13777071	      0.71568470	      1.65033460	    -25.48775929	     16.35524755	     -5.92252052	     -8.36640112	     -2.19265196	      5.03072820
